Normalized EMG Linear Envelopes
nRows=38
nColumns=17

endheader
time	        VM	        VL	        RF	       GRA	        TA	   ADDLONG	   SEMIMEM	      BFLH	        GM	        GL	       TFL	   GLUTMAX	   GLUTMED	      PIRI	    OBTINT	        QF	
2.49	  0.067750	  0.108203	  0.328794	  0.821842	  0.303339	  0.325242	  0.155273	  0.098975	  0.287599	  0.293564	  0.453802	  0.018111	  0.148470	  0.436790	  1.153759	  0.167656	
2.4905	  0.067521	  0.107889	  0.330439	  0.822929	  0.307383	  0.324687	  0.155857	  0.099575	  0.287096	  0.292890	  0.455694	  0.017520	  0.147076	  0.436914	  1.138065	  0.167018	
2.491	  0.067306	  0.107597	  0.332099	  0.823838	  0.311453	  0.324120	  0.156420	  0.100160	  0.286566	  0.292187	  0.457573	  0.016944	  0.145671	  0.436998	  1.122511	  0.166371	
2.4915	  0.067105	  0.107326	  0.333774	  0.824568	  0.315546	  0.323541	  0.156960	  0.100730	  0.286008	  0.291456	  0.459438	  0.016384	  0.144255	  0.437040	  1.107102	  0.165715	
2.492	  0.066918	  0.107076	  0.335465	  0.825119	  0.319662	  0.322953	  0.157478	  0.101285	  0.285424	  0.290698	  0.461286	  0.015839	  0.142829	  0.437037	  1.091839	  0.165050	
2.4925	  0.066745	  0.106846	  0.337175	  0.825490	  0.323800	  0.322355	  0.157974	  0.101824	  0.284814	  0.289912	  0.463116	  0.015310	  0.141393	  0.436988	  1.076726	  0.164375	
2.493	  0.066585	  0.106637	  0.338904	  0.825680	  0.327958	  0.321748	  0.158446	  0.102347	  0.284176	  0.289099	  0.464924	  0.014795	  0.139947	  0.436891	  1.061764	  0.163690	
2.4935	  0.066437	  0.106447	  0.340653	  0.825690	  0.332135	  0.321134	  0.158897	  0.102853	  0.283513	  0.288259	  0.466711	  0.014295	  0.138493	  0.436744	  1.046956	  0.162995	
2.494	  0.066302	  0.106277	  0.342425	  0.825518	  0.336330	  0.320513	  0.159325	  0.103342	  0.282823	  0.287394	  0.468472	  0.013809	  0.137030	  0.436546	  1.032305	  0.162289	
2.4945	  0.066179	  0.106127	  0.344219	  0.825166	  0.340540	  0.319885	  0.159730	  0.103814	  0.282107	  0.286502	  0.470207	  0.013338	  0.135559	  0.436295	  1.017813	  0.161573	
2.495	  0.066069	  0.105995	  0.346038	  0.824634	  0.344765	  0.319253	  0.160112	  0.104266	  0.281366	  0.285585	  0.471914	  0.012881	  0.134082	  0.435990	  1.003481	  0.160845	
2.4955	  0.065970	  0.105883	  0.347883	  0.823922	  0.349002	  0.318616	  0.160471	  0.104700	  0.280598	  0.284643	  0.473591	  0.012438	  0.132597	  0.435631	  0.989311	  0.160106	
2.496	  0.065882	  0.105789	  0.349754	  0.823031	  0.353250	  0.317975	  0.160807	  0.105115	  0.279805	  0.283676	  0.475235	  0.012008	  0.131107	  0.435216	  0.975305	  0.159356	
2.4965	  0.065806	  0.105714	  0.351654	  0.821961	  0.357508	  0.317332	  0.161120	  0.105510	  0.278986	  0.282684	  0.476845	  0.011593	  0.129611	  0.434746	  0.961463	  0.158594	
2.497	  0.065741	  0.105658	  0.353584	  0.820713	  0.361773	  0.316687	  0.161410	  0.105885	  0.278142	  0.281667	  0.478420	  0.011190	  0.128110	  0.434219	  0.947788	  0.157820	
2.4975	  0.065686	  0.105619	  0.355545	  0.819287	  0.366043	  0.316042	  0.161677	  0.106241	  0.277271	  0.280626	  0.479957	  0.010801	  0.126606	  0.433636	  0.934280	  0.157034	
2.498	  0.065642	  0.105598	  0.357538	  0.817683	  0.370317	  0.315396	  0.161921	  0.106575	  0.276375	  0.279561	  0.481455	  0.010425	  0.125098	  0.432997	  0.920941	  0.156235	
2.4985	  0.065607	  0.105595	  0.359565	  0.815902	  0.374591	  0.314752	  0.162142	  0.106890	  0.275452	  0.278472	  0.482914	  0.010062	  0.123587	  0.432300	  0.907772	  0.155423	
2.499	  0.065583	  0.105609	  0.361627	  0.813945	  0.378865	  0.314110	  0.162341	  0.107184	  0.274503	  0.277358	  0.484332	  0.009712	  0.122074	  0.431548	  0.894775	  0.154598	
2.4995	  0.065567	  0.105641	  0.363726	  0.811814	  0.383136	  0.313470	  0.162516	  0.107457	  0.273527	  0.276221	  0.485708	  0.009374	  0.120559	  0.430738	  0.881951	  0.153760	
2.5	  0.065560	  0.105690	  0.365861	  0.809512	  0.387400	  0.312833	  0.162669	  0.107709	  0.272525	  0.275059	  0.487041	  0.009048	  0.119044	  0.429872	  0.869301	  0.152908	
2.5005	  0.065562	  0.105755	  0.368034	  0.807040	  0.391656	  0.312201	  0.162798	  0.107941	  0.271495	  0.273873	  0.488330	  0.008735	  0.117529	  0.428949	  0.856826	  0.152043	
2.501	  0.065571	  0.105837	  0.370246	  0.804402	  0.395902	  0.311574	  0.162906	  0.108152	  0.270438	  0.272662	  0.489574	  0.008434	  0.116015	  0.427970	  0.844529	  0.151164	
2.5015	  0.065589	  0.105935	  0.372497	  0.801603	  0.400133	  0.310952	  0.162990	  0.108342	  0.269353	  0.271425	  0.490771	  0.008144	  0.114502	  0.426935	  0.832409	  0.150271	
2.502	  0.065614	  0.106050	  0.374788	  0.798646	  0.404347	  0.310337	  0.163052	  0.108510	  0.268240	  0.270164	  0.491919	  0.007866	  0.112990	  0.425845	  0.820469	  0.149365	
2.5025	  0.065646	  0.106180	  0.377120	  0.795535	  0.408542	  0.309729	  0.163092	  0.108658	  0.267098	  0.268876	  0.493019	  0.007600	  0.111481	  0.424699	  0.808708	  0.148446	
2.503	  0.065685	  0.106325	  0.379493	  0.792276	  0.412715	  0.309129	  0.163109	  0.108785	  0.265928	  0.267562	  0.494068	  0.007345	  0.109975	  0.423499	  0.797126	  0.147514	
2.5035	  0.065731	  0.106485	  0.381907	  0.788872	  0.416861	  0.308537	  0.163104	  0.108890	  0.264728	  0.266221	  0.495065	  0.007101	  0.108473	  0.422243	  0.785725	  0.146570	
2.504	  0.065783	  0.106659	  0.384362	  0.785329	  0.420979	  0.307954	  0.163077	  0.108974	  0.263498	  0.264853	  0.496011	  0.006867	  0.106975	  0.420934	  0.774505	  0.145615	
2.5045	  0.065841	  0.106847	  0.386859	  0.781650	  0.425064	  0.307381	  0.163028	  0.109036	  0.262239	  0.263456	  0.496905	  0.006645	  0.105481	  0.419570	  0.763464	  0.144648	
2.505	  0.065904	  0.107050	  0.389397	  0.777842	  0.429114	  0.306818	  0.162957	  0.109076	  0.260948	  0.262030	  0.497745	  0.006433	  0.103993	  0.418152	  0.752603	  0.143671	
2.5055	  0.065972	  0.107265	  0.391976	  0.773908	  0.433124	  0.306266	  0.162865	  0.109095	  0.259626	  0.260574	  0.498533	  0.006232	  0.102510	  0.416681	  0.741921	  0.142685	
2.506	  0.066045	  0.107493	  0.394597	  0.769855	  0.437092	  0.305724	  0.162752	  0.109093	  0.258272	  0.259088	  0.499268	  0.006040	  0.101034	  0.415155	  0.731418	  0.141689	
2.5065	  0.066123	  0.107733	  0.397258	  0.765689	  0.441013	  0.305193	  0.162618	  0.109069	  0.256886	  0.257570	  0.499949	  0.005859	  0.099565	  0.413576	  0.721091	  0.140684	
2.507	  0.066205	  0.107984	  0.399960	  0.761416	  0.444885	  0.304674	  0.162463	  0.109024	  0.255467	  0.256020	  0.500577	  0.005688	  0.098102	  0.411945	  0.710942	  0.139671	
2.5075	  0.066291	  0.108247	  0.402701	  0.757042	  0.448703	  0.304167	  0.162289	  0.108958	  0.254015	  0.254439	  0.501152	  0.005527	  0.096648	  0.410261	  0.700967	  0.138650	
2.508	  0.066381	  0.108521	  0.405482	  0.752572	  0.452463	  0.303673	  0.162095	  0.108871	  0.252529	  0.252824	  0.501673	  0.005376	  0.095202	  0.408525	  0.691168	  0.137622	
2.5085	  0.066474	  0.108804	  0.408301	  0.748013	  0.456162	  0.303190	  0.161882	  0.108764	  0.251010	  0.251177	  0.502141	  0.005234	  0.093764	  0.406739	  0.681541	  0.136587	
